<?xml version="1.0" encoding="UTF-8"?>
<svg xmlns="http://www.w3.org/2000/svg" xmlns:xlink="http://www.w3.org/1999/xlink" width="100px" height="100px" viewBox="0 0 100 100" version="1.1">
<g id="surface1">
<path style=" stroke:none;fill-rule:nonzero;fill:rgb(7.843137%,63.529412%,86.27451%);fill-opacity:1;" d="M 31.414062 44.121094 C 31.589844 44.121094 31.730469 44.261719 31.730469 44.4375 L 31.730469 63.648438 C 31.730469 63.824219 31.589844 63.96875 31.414062 63.96875 L 25.660156 63.96875 C 25.484375 63.96875 25.34375 63.824219 25.34375 63.648438 L 25.34375 44.4375 C 25.34375 44.261719 25.484375 44.121094 25.660156 44.121094 L 31.414062 44.121094 "/>
<path style=" stroke:none;fill-rule:nonzero;fill:rgb(7.843137%,63.529412%,86.27451%);fill-opacity:1;" d="M 52.191406 44.121094 C 52.367188 44.121094 52.507812 44.261719 52.507812 44.4375 L 52.507812 49.167969 C 52.507812 49.34375 52.367188 49.488281 52.191406 49.488281 L 47.167969 49.488281 C 46.992188 49.488281 46.851562 49.628906 46.851562 49.804688 L 46.851562 63.652344 C 46.851562 63.828125 46.707031 63.96875 46.53125 63.96875 L 40.78125 63.96875 C 40.605469 63.96875 40.464844 63.828125 40.464844 63.652344 L 40.464844 49.804688 C 40.464844 49.628906 40.320312 49.488281 40.144531 49.488281 L 35.238281 49.488281 C 35.066406 49.488281 34.921875 49.34375 34.921875 49.167969 L 34.921875 44.4375 C 34.921875 44.261719 35.066406 44.121094 35.238281 44.121094 L 52.191406 44.121094 "/>
<path style=" stroke:none;fill-rule:nonzero;fill:rgb(7.843137%,63.529412%,86.27451%);fill-opacity:1;" d="M 74.574219 44.121094 C 74.746094 44.121094 74.890625 44.261719 74.890625 44.4375 L 74.890625 54.226562 C 74.890625 60.714844 71.492188 64.140625 65.066406 64.140625 C 58.855469 64.140625 55.703125 60.757812 55.703125 54.082031 L 55.703125 44.4375 C 55.703125 44.261719 55.847656 44.117188 56.023438 44.117188 L 61.773438 44.117188 C 61.949219 44.117188 62.09375 44.261719 62.09375 44.4375 L 62.09375 54.050781 C 62.09375 56.164062 62.648438 58.6875 65.300781 58.6875 C 67.457031 58.6875 68.507812 57.171875 68.507812 54.050781 L 68.507812 44.4375 C 68.507812 44.261719 68.652344 44.117188 68.828125 44.117188 L 74.574219 44.117188 "/>
<path style=" stroke:none;fill-rule:nonzero;fill:rgb(7.843137%,63.529412%,86.27451%);fill-opacity:1;" d="M 80.609375 83.753906 C 76.792969 81.875 72.5 79.726562 68.539062 77.367188 C 69.214844 76.84375 69.867188 76.292969 70.496094 75.714844 C 76.640625 70.171875 80.496094 62.179688 80.496094 53.289062 C 80.496094 46.96875 78.542969 41.101562 75.210938 36.246094 C 69.726562 28.109375 60.425781 22.746094 49.898438 22.746094 C 43.941406 22.746094 38.378906 24.464844 33.675781 27.429688 C 31.199219 23.976562 28.710938 20.230469 26.082031 16.25 C 26.910156 17.929688 29.363281 23.105469 32.238281 28.394531 C 25.703125 33.050781 21.074219 40.21875 19.773438 48.476562 C 19.523438 50.042969 19.390625 51.652344 19.390625 53.292969 C 19.390625 58.003906 20.472656 62.460938 22.40625 66.441406 C 27.335938 76.671875 37.804688 83.746094 49.898438 83.746094 C 56.128906 83.746094 61.925781 81.867188 66.757812 78.648438 C 71.402344 80.5625 76.0625 82.167969 80.609375 83.753906 Z M 47.039062 81.105469 C 39.957031 80.386719 33.65625 77.070312 29.113281 72.128906 C 28.417969 71.132812 28 69.914062 27.851562 68.511719 C 30.675781 71.25 34.253906 73.730469 38.328125 75.675781 C 42.769531 77.800781 47.429688 79.144531 51.875 79.628906 C 50.292969 80.734375 48.660156 81.246094 47.039062 81.105469 Z M 27.183594 65.941406 C 27.15625 66.222656 27.140625 66.496094 27.128906 66.769531 C 26.875 66.496094 26.628906 66.21875 26.390625 65.941406 L 25.484375 65.941406 C 25.992188 66.5625 26.539062 67.175781 27.121094 67.777344 C 27.152344 68.632812 27.265625 69.429688 27.46875 70.167969 C 23.886719 65.476562 21.757812 59.628906 21.757812 53.289062 C 21.757812 47.59375 23.472656 42.296875 26.421875 37.878906 C 26.082031 39.214844 25.933594 40.640625 25.984375 42.140625 L 26.664062 42.140625 C 26.585938 39.925781 26.945312 37.847656 27.78125 36.003906 C 28.898438 34.597656 30.148438 33.300781 31.511719 32.128906 C 32.21875 31.730469 32.953125 31.359375 33.699219 31.011719 C 35.359375 33.929688 37.089844 36.707031 38.683594 38.757812 C 38.375 38.777344 35.773438 38.933594 33.3125 38.644531 L 33.601562 38.726562 C 33.511719 38.71875 33.417969 38.710938 33.324219 38.703125 C 33.894531 39.882812 34.511719 41.027344 35.171875 42.144531 L 46.761719 42.144531 C 46.15625 41.648438 45.5625 41.132812 44.972656 40.601562 C 47.671875 38.417969 50.480469 36.570312 53.273438 35.136719 C 54.164062 36.144531 55.351562 37.0625 56.746094 37.789062 C 58.535156 38.722656 60.417969 39.203125 62.113281 39.253906 C 62.316406 40.195312 62.492188 41.15625 62.636719 42.144531 L 63.328125 42.144531 C 63.1875 41.15625 63.011719 40.191406 62.808594 39.25 C 64.542969 39.175781 66.019531 38.625 66.902344 37.609375 C 68.363281 39.019531 69.65625 40.542969 70.761719 42.144531 L 71.585938 42.144531 C 70.378906 40.339844 68.945312 38.625 67.308594 37.046875 C 67.792969 36.199219 67.902344 35.191406 67.617188 34.117188 C 67.433594 33.429688 67.097656 32.746094 66.640625 32.085938 C 68 32.351562 69.144531 32.882812 70.027344 33.675781 C 75.035156 38.726562 78.125 45.648438 78.125 53.289062 C 78.125 56.84375 77.453125 60.242188 76.234375 63.371094 C 73.851562 68.332031 68.082031 71.023438 60.992188 71.222656 C 63.988281 70.464844 66.371094 69.425781 69.199219 67.636719 C 68.144531 67.148438 67.082031 66.617188 66.019531 66.050781 C 65.691406 66.070312 65.359375 66.078125 65.019531 66.078125 C 59.113281 66.078125 55.433594 63.476562 54.238281 58.335938 C 52.382812 56.914062 50.570312 55.429688 48.816406 53.921875 L 48.816406 58.226562 C 51.300781 60.484375 53.777344 62.5625 56.09375 64.476562 C 54.3125 65.664062 48.546875 67.414062 47.417969 67.609375 C 48.386719 68.386719 49.371094 69.121094 50.363281 69.828125 C 48.003906 69.167969 45.613281 68.277344 43.242188 67.144531 C 43.015625 67.035156 42.789062 66.921875 42.5625 66.8125 C 42.53125 66.796875 42.5 66.78125 42.46875 66.761719 C 42.046875 66.550781 41.632812 66.335938 41.222656 66.109375 C 38.277344 64.5 35.730469 62.605469 33.691406 60.53125 L 33.691406 61.488281 C 34.359375 62.136719 35.070312 62.765625 35.820312 63.367188 C 38.058594 65.152344 40.640625 66.714844 43.472656 68.003906 C 46.28125 69.304688 49.148438 70.289062 51.992188 70.949219 C 53.574219 72.003906 55.179688 72.976562 56.800781 73.882812 C 56.78125 73.914062 56.761719 73.949219 56.742188 73.980469 C 55.488281 76.105469 54.128906 77.785156 52.710938 78.980469 C 48.230469 78.589844 43.347656 77.28125 38.605469 75.011719 C 34.339844 72.972656 30.632812 70.347656 27.792969 67.46875 C 27.785156 66.976562 27.8125 66.46875 27.867188 65.941406 Z M 51.675781 32.316406 C 51.882812 33.085938 52.277344 33.859375 52.832031 34.59375 C 50.011719 36.054688 47.179688 37.925781 44.464844 40.132812 C 41.375 37.269531 38.515625 33.921875 35.6875 30.171875 C 35.703125 30.164062 35.71875 30.160156 35.734375 30.152344 C 35.738281 30.148438 35.742188 30.148438 35.746094 30.148438 C 37.003906 29.675781 38.335938 29.296875 39.726562 29.027344 C 43.703125 28.253906 47.886719 28.386719 51.984375 29.382812 C 51.5 30.230469 51.390625 31.242188 51.675781 32.316406 Z M 52.335938 32.140625 C 52.085938 31.191406 52.195312 30.316406 52.648438 29.605469 C 52.660156 29.59375 52.671875 29.578125 52.679688 29.566406 C 54.863281 30.148438 57.015625 30.976562 59.097656 32.039062 C 58.664062 32.167969 58.222656 32.304688 57.773438 32.457031 C 56.351562 32.941406 54.90625 33.558594 53.457031 34.277344 C 52.917969 33.578125 52.527344 32.851562 52.335938 32.140625 Z M 59.371094 31.414062 C 57.359375 30.386719 55.28125 29.574219 53.175781 28.988281 C 54.019531 28.226562 55.324219 27.835938 56.835938 27.835938 C 57.753906 28.78125 58.609375 29.980469 59.371094 31.414062 Z M 57.839844 27.886719 C 59.246094 28.035156 60.773438 28.484375 62.234375 29.246094 C 63.277344 29.789062 64.207031 30.460938 64.96875 31.191406 C 63.558594 31.144531 61.996094 31.320312 60.304688 31.722656 C 59.566406 30.214844 58.738281 28.929688 57.839844 27.886719 Z M 58 33.101562 C 58.65625 32.878906 59.300781 32.6875 59.925781 32.523438 C 60.203125 33.121094 60.464844 33.75 60.714844 34.414062 C 61.203125 35.722656 61.617188 37.117188 61.960938 38.578125 C 60.417969 38.496094 58.703125 38.035156 57.0625 37.183594 C 55.820312 36.535156 54.738281 35.710938 53.914062 34.8125 C 55.289062 34.140625 56.65625 33.5625 58 33.101562 Z M 61.355469 34.175781 C 61.210938 33.78125 61.054688 33.402344 60.898438 33.03125 C 62.929688 34.230469 64.773438 35.617188 66.410156 37.136719 C 65.628906 38.0625 64.273438 38.546875 62.667969 38.589844 C 62.308594 37.039062 61.871094 35.558594 61.355469 34.175781 Z M 60.96875 32.28125 C 62.6875 31.921875 64.269531 31.808594 65.667969 31.941406 C 66.300781 32.703125 66.75 33.503906 66.960938 34.289062 C 67.183594 35.121094 67.125 35.898438 66.796875 36.558594 C 65.066406 34.964844 63.117188 33.523438 60.96875 32.28125 Z M 62.546875 28.640625 C 60.757812 27.707031 58.871094 27.226562 57.175781 27.179688 C 56.660156 26.671875 56.128906 26.238281 55.578125 25.882812 C 60.152344 26.804688 64.324219 28.824219 67.800781 31.652344 C 67.238281 31.476562 66.636719 31.347656 65.996094 31.269531 C 65.109375 30.269531 63.933594 29.359375 62.546875 28.640625 Z M 56.164062 27.199219 C 54.585938 27.324219 53.25 27.859375 52.417969 28.789062 C 48.136719 27.710938 43.757812 27.546875 39.59375 28.359375 C 38.121094 28.644531 36.714844 29.046875 35.386719 29.550781 L 35.386719 29.554688 C 35.34375 29.570312 35.304688 29.585938 35.261719 29.601562 C 35.230469 29.558594 35.195312 29.515625 35.164062 29.472656 C 39.460938 26.84375 44.523438 25.324219 49.941406 25.324219 C 50.78125 25.324219 51.609375 25.359375 52.429688 25.429688 C 53.734375 25.585938 54.992188 26.191406 56.164062 27.199219 Z M 52.882812 79.722656 C 53.757812 79.792969 54.621094 79.832031 55.46875 79.832031 C 56.101562 79.832031 56.726562 79.8125 57.34375 79.773438 C 58.179688 79.71875 58.988281 79.628906 59.761719 79.507812 C 56.820312 80.59375 53.648438 81.203125 50.335938 81.246094 C 51.199219 80.898438 52.050781 80.386719 52.882812 79.722656 Z M 53.664062 79.046875 C 54.957031 77.84375 56.195312 76.265625 57.335938 74.328125 C 57.359375 74.292969 57.378906 74.253906 57.402344 74.210938 C 59.601562 75.414062 61.832031 76.496094 64.070312 77.492188 C 63.914062 77.582031 63.757812 77.664062 63.601562 77.75 C 60.820312 78.828125 57.402344 79.269531 53.664062 79.046875 Z M 60.765625 71.910156 C 61.714844 71.890625 62.652344 71.828125 63.570312 71.71875 C 68.269531 71.160156 72.054688 69.480469 74.582031 66.878906 C 72.550781 70.496094 69.734375 73.617188 66.363281 76.019531 C 64.3125 74.707031 62.40625 73.332031 60.765625 71.910156 Z M 60.765625 71.910156 "/>
</g>
</svg>
